<svg width="20" height="21" viewBox="0 0 20 21" fill="none" xmlns="http://www.w3.org/2000/svg">
<path d="M10 0.899902C10.41 0.899902 10.75 1.2399 10.75 1.6499V3.1499C10.75 3.34881 10.671 3.53958 10.5303 3.68023C10.3897 3.82088 10.1989 3.8999 10 3.8999C9.80109 3.8999 9.61032 3.82088 9.46967 3.68023C9.32902 3.53958 9.25 3.34881 9.25 3.1499V1.6499C9.25 1.2399 9.59 0.899902 10 0.899902ZM10 15.8999C11.3261 15.8999 12.5979 15.3731 13.5355 14.4354C14.4732 13.4978 15 12.226 15 10.8999C15 9.57382 14.4732 8.30205 13.5355 7.36437C12.5979 6.42669 11.3261 5.8999 10 5.8999C8.67392 5.8999 7.40215 6.42669 6.46447 7.36437C5.52678 8.30205 5 9.57382 5 10.8999C5 12.226 5.52678 13.4978 6.46447 14.4354C7.40215 15.3731 8.67392 15.8999 10 15.8999ZM10 14.3999C9.54037 14.3999 9.08525 14.3094 8.66061 14.1335C8.23597 13.9576 7.85013 13.6998 7.52513 13.3748C7.20012 13.0498 6.94231 12.6639 6.76642 12.2393C6.59053 11.8147 6.5 11.3595 6.5 10.8999C6.5 10.4403 6.59053 9.98515 6.76642 9.56051C6.94231 9.13587 7.20012 8.75003 7.52513 8.42503C7.85013 8.10002 8.23597 7.84222 8.66061 7.66632C9.08525 7.49043 9.54037 7.3999 10 7.3999C10.9283 7.3999 11.8185 7.76865 12.4749 8.42503C13.1313 9.08141 13.5 9.97164 13.5 10.8999C13.5 11.8282 13.1313 12.7184 12.4749 13.3748C11.8185 14.0312 10.9283 14.3999 10 14.3999ZM19.25 11.6499C19.4489 11.6499 19.6397 11.5709 19.7803 11.4302C19.921 11.2896 20 11.0988 20 10.8999C20 10.701 19.921 10.5102 19.7803 10.3696C19.6397 10.2289 19.4489 10.1499 19.25 10.1499H17.75C17.5511 10.1499 17.3603 10.2289 17.2197 10.3696C17.079 10.5102 17 10.701 17 10.8999C17 11.0988 17.079 11.2896 17.2197 11.4302C17.3603 11.5709 17.5511 11.6499 17.75 11.6499H19.25ZM10 17.8999C10.41 17.8999 10.75 18.2399 10.75 18.6499V20.1499C10.75 20.3488 10.671 20.5396 10.5303 20.6802C10.3897 20.8209 10.1989 20.8999 10 20.8999C9.80109 20.8999 9.61032 20.8209 9.46967 20.6802C9.32902 20.5396 9.25 20.3488 9.25 20.1499V18.6499C9.25 18.2399 9.59 17.8999 10 17.8999ZM2.25 11.6499C2.44891 11.6499 2.63968 11.5709 2.78033 11.4302C2.92098 11.2896 3 11.0988 3 10.8999C3 10.701 2.92098 10.5102 2.78033 10.3696C2.63968 10.2289 2.44891 10.1499 2.25 10.1499H0.75C0.551088 10.1499 0.360322 10.2289 0.21967 10.3696C0.0790175 10.5102 0 10.701 0 10.8999C0 11.0988 0.0790175 11.2896 0.21967 11.4302C0.360322 11.5709 0.551088 11.6499 0.75 11.6499H2.25ZM2.22 3.1199C2.52 2.8199 2.99 2.8199 3.28 3.1199L4.78 4.6199C4.91248 4.76208 4.9846 4.95012 4.98117 5.14442C4.97775 5.33873 4.89903 5.52411 4.76162 5.66152C4.62421 5.79894 4.43882 5.87765 4.24452 5.88108C4.05022 5.88451 3.86217 5.81238 3.72 5.6799L2.22 4.1799C2.07955 4.03928 2.00066 3.84865 2.00066 3.6499C2.00066 3.45115 2.07955 3.26053 2.22 3.1199ZM3.28 18.6799C3.21134 18.7536 3.12854 18.8127 3.03654 18.8537C2.94454 18.8947 2.84523 18.9167 2.74452 18.9185C2.64382 18.9203 2.54379 18.9017 2.4504 18.864C2.35701 18.8263 2.27218 18.7702 2.20096 18.6989C2.12974 18.6277 2.0736 18.5429 2.03588 18.4495C1.99816 18.3561 1.97963 18.2561 1.98141 18.1554C1.98319 18.0547 2.00523 17.9554 2.04622 17.8634C2.08721 17.7714 2.14631 17.6886 2.22 17.6199L3.72 16.1199C3.78866 16.0462 3.87146 15.9871 3.96346 15.9461C4.05546 15.9051 4.15477 15.8831 4.25548 15.8813C4.35618 15.8795 4.45621 15.8981 4.5496 15.9358C4.64299 15.9735 4.72782 16.0296 4.79904 16.1009C4.87026 16.1721 4.9264 16.2569 4.96412 16.3503C5.00184 16.4437 5.02037 16.5437 5.01859 16.6444C5.01681 16.7451 4.99477 16.8444 4.95378 16.9364C4.91279 17.0284 4.85369 17.1112 4.78 17.1799L3.28 18.6799ZM17.78 3.1199C17.6394 2.97945 17.4488 2.90056 17.25 2.90056C17.0512 2.90056 16.8606 2.97945 16.72 3.1199L15.22 4.6199C15.0875 4.76208 15.0154 4.95012 15.0188 5.14442C15.0223 5.33873 15.101 5.52411 15.2384 5.66152C15.3758 5.79894 15.5612 5.87765 15.7555 5.88108C15.9498 5.88451 16.1378 5.81238 16.28 5.6799L17.78 4.1799C18.08 3.8799 18.08 3.4099 17.78 3.1199ZM16.72 18.6799C16.7887 18.7536 16.8715 18.8127 16.9635 18.8537C17.0555 18.8947 17.1548 18.9167 17.2555 18.9185C17.3562 18.9203 17.4562 18.9017 17.5496 18.864C17.643 18.8263 17.7278 18.7702 17.799 18.6989C17.8703 18.6277 17.9264 18.5429 17.9641 18.4495C18.0018 18.3561 18.0204 18.2561 18.0186 18.1554C18.0168 18.0547 17.9948 17.9554 17.9538 17.8634C17.9128 17.7714 17.8537 17.6886 17.78 17.6199L16.28 16.1199C16.2113 16.0462 16.1285 15.9871 16.0365 15.9461C15.9445 15.9051 15.8452 15.8831 15.7445 15.8813C15.6438 15.8795 15.5438 15.8981 15.4504 15.9358C15.357 15.9735 15.2722 16.0296 15.201 16.1009C15.1297 16.1721 15.0736 16.2569 15.0359 16.3503C14.9982 16.4437 14.9796 16.5437 14.9814 16.6444C14.9832 16.7451 15.0052 16.8444 15.0462 16.9364C15.0872 17.0284 15.1463 17.1112 15.22 17.1799L16.72 18.6799Z" fill="#292827"/>
</svg>
